<mxfile host="app.diagrams.net" modified="2021-05-10T16:30:56.552Z" agent="5.0 (Windows NT 10.0; Win64; x64) AppleWebKit/537.36 (KHTML, like Gecko) Chrome/90.0.4430.93 Safari/537.36" etag="xtTOlcLZIx8LMhUGKXNs" version="14.6.11" type="github">
  <diagram id="whum5KUoKy-AiShSeKjw" name="Page-1">
    <mxGraphModel dx="1414" dy="718" grid="1" gridSize="10" guides="1" tooltips="1" connect="1" arrows="1" fold="1" page="1" pageScale="1" pageWidth="1169" pageHeight="827" math="0" shadow="0">
      <root>
        <mxCell id="0" />
        <mxCell id="1" parent="0" />
        <mxCell id="QNasyu7A6PwzEU0mUTjG-3" style="edgeStyle=orthogonalEdgeStyle;rounded=0;orthogonalLoop=1;jettySize=auto;html=1;entryX=0;entryY=0.5;entryDx=0;entryDy=0;" parent="1" source="QNasyu7A6PwzEU0mUTjG-1" target="QNasyu7A6PwzEU0mUTjG-2" edge="1">
          <mxGeometry relative="1" as="geometry" />
        </mxCell>
        <mxCell id="QNasyu7A6PwzEU0mUTjG-14" value="" style="group" parent="1" vertex="1" connectable="0">
          <mxGeometry x="200" y="290" width="120" height="124" as="geometry" />
        </mxCell>
        <mxCell id="QNasyu7A6PwzEU0mUTjG-2" value="&lt;p&gt;&lt;font face=&quot;Georgia&quot;&gt;Catalogue&lt;/font&gt;&lt;/p&gt;" style="rounded=0;whiteSpace=wrap;html=1;fillColor=#f5f5f5;strokeColor=#666666;fontColor=#333333;" parent="QNasyu7A6PwzEU0mUTjG-14" vertex="1">
          <mxGeometry width="120" height="60" as="geometry" />
        </mxCell>
        <mxCell id="QNasyu7A6PwzEU0mUTjG-13" value="&lt;font face=&quot;Lucida Console&quot; style=&quot;font-size: 6px&quot;&gt;&lt;span&gt;GET /catalogue&lt;/span&gt;&lt;br&gt;&lt;span&gt;GET /tags&lt;br&gt;GET /recommender&lt;br&gt;GET /cart&lt;br&gt;&lt;/span&gt;&lt;/font&gt;" style="text;html=1;strokeColor=none;fillColor=none;align=left;verticalAlign=top;whiteSpace=wrap;rounded=0;dashed=1;horizontal=1;fontStyle=0;labelBackgroundColor=#ffffff;labelBorderColor=#000000;spacingTop=0;spacing=0;" parent="QNasyu7A6PwzEU0mUTjG-14" vertex="1">
          <mxGeometry x="30" y="44" width="90" height="80" as="geometry" />
        </mxCell>
        <mxCell id="QNasyu7A6PwzEU0mUTjG-15" value="" style="group" parent="1" vertex="1" connectable="0">
          <mxGeometry x="60" y="290" width="120" height="124" as="geometry" />
        </mxCell>
        <mxCell id="QNasyu7A6PwzEU0mUTjG-1" value="&lt;p&gt;&lt;font face=&quot;Georgia&quot;&gt;Homepage&lt;/font&gt;&lt;/p&gt;" style="rounded=0;whiteSpace=wrap;html=1;fillColor=#f5f5f5;strokeColor=#666666;fontColor=#333333;" parent="QNasyu7A6PwzEU0mUTjG-15" vertex="1">
          <mxGeometry width="120" height="60" as="geometry" />
        </mxCell>
        <mxCell id="QNasyu7A6PwzEU0mUTjG-12" value="&lt;font face=&quot;Lucida Console&quot; style=&quot;font-size: 6px&quot;&gt;&lt;span&gt;GET /catalogue?size=5&lt;/span&gt;&lt;br&gt;&lt;span&gt;GET /cart&lt;/span&gt;&lt;/font&gt;" style="text;html=1;strokeColor=none;fillColor=none;align=left;verticalAlign=top;whiteSpace=wrap;rounded=0;dashed=1;horizontal=1;fontStyle=0;labelBackgroundColor=#ffffff;labelBorderColor=#000000;spacingTop=0;spacing=0;" parent="QNasyu7A6PwzEU0mUTjG-15" vertex="1">
          <mxGeometry x="15" y="44" width="90" height="80" as="geometry" />
        </mxCell>
        <mxCell id="QNasyu7A6PwzEU0mUTjG-17" value="" style="group" parent="1" vertex="1" connectable="0">
          <mxGeometry x="660" y="160" width="120" height="130" as="geometry" />
        </mxCell>
        <mxCell id="QNasyu7A6PwzEU0mUTjG-18" value="&lt;p&gt;&lt;font face=&quot;Georgia&quot;&gt;Item&lt;/font&gt;&lt;/p&gt;" style="rounded=0;whiteSpace=wrap;html=1;fillColor=#f5f5f5;strokeColor=#666666;fontColor=#333333;" parent="QNasyu7A6PwzEU0mUTjG-17" vertex="1">
          <mxGeometry x="-460" y="-37" width="120" height="60" as="geometry" />
        </mxCell>
        <mxCell id="QNasyu7A6PwzEU0mUTjG-19" value="&lt;font face=&quot;Lucida Console&quot; style=&quot;font-size: 6px&quot;&gt;&lt;span&gt;GET /catalogue/{id}&lt;/span&gt;&lt;br&gt;&lt;span&gt;GET /catalogue&lt;br&gt;GET /recommender&lt;br&gt;GET /cart&lt;br&gt;&lt;/span&gt;&lt;/font&gt;" style="text;html=1;strokeColor=none;fillColor=none;align=left;verticalAlign=top;whiteSpace=wrap;rounded=0;dashed=1;horizontal=1;fontStyle=0;labelBackgroundColor=#ffffff;labelBorderColor=#000000;spacingTop=0;spacing=0;" parent="1" vertex="1">
          <mxGeometry x="222" y="80" width="90" height="80" as="geometry" />
        </mxCell>
        <mxCell id="Ui0SziSdFyUZLDTpdayq-15" style="edgeStyle=orthogonalEdgeStyle;rounded=0;orthogonalLoop=1;jettySize=auto;html=1;fontFamily=Georgia;fontSize=8;entryX=0.5;entryY=0;entryDx=0;entryDy=0;exitX=0.5;exitY=1;exitDx=0;exitDy=0;" parent="1" source="QNasyu7A6PwzEU0mUTjG-26" target="QNasyu7A6PwzEU0mUTjG-2" edge="1">
          <mxGeometry relative="1" as="geometry">
            <mxPoint x="250" y="260" as="targetPoint" />
            <Array as="points">
              <mxPoint x="290" y="244" />
              <mxPoint x="290" y="260" />
              <mxPoint x="260" y="260" />
            </Array>
          </mxGeometry>
        </mxCell>
        <mxCell id="QNasyu7A6PwzEU0mUTjG-26" value="&lt;font style=&quot;font-size: 7px&quot;&gt;Add item to cart&lt;br&gt;POST /cart&lt;/font&gt;" style="rounded=0;whiteSpace=wrap;html=1;dashed=1;labelBackgroundColor=none;strokeColor=#6c8ebf;fillColor=#dae8fc;fontFamily=Lucida Console;align=left;" parent="1" vertex="1">
          <mxGeometry x="256.00000000000006" y="214" width="72" height="30" as="geometry" />
        </mxCell>
        <mxCell id="QNasyu7A6PwzEU0mUTjG-38" style="edgeStyle=orthogonalEdgeStyle;rounded=0;orthogonalLoop=1;jettySize=auto;html=1;exitX=0.5;exitY=1;exitDx=0;exitDy=0;entryX=0.5;entryY=0;entryDx=0;entryDy=0;strokeColor=#000000;fontFamily=Lucida Console;" parent="1" source="QNasyu7A6PwzEU0mUTjG-18" target="QNasyu7A6PwzEU0mUTjG-26" edge="1">
          <mxGeometry relative="1" as="geometry">
            <Array as="points">
              <mxPoint x="260" y="200" />
              <mxPoint x="292" y="200" />
            </Array>
          </mxGeometry>
        </mxCell>
        <mxCell id="QNasyu7A6PwzEU0mUTjG-39" style="edgeStyle=orthogonalEdgeStyle;rounded=0;orthogonalLoop=1;jettySize=auto;html=1;exitX=0.5;exitY=1;exitDx=0;exitDy=0;strokeColor=#000000;fontFamily=Lucida Console;entryX=0.5;entryY=0;entryDx=0;entryDy=0;" parent="1" source="QNasyu7A6PwzEU0mUTjG-18" target="QNasyu7A6PwzEU0mUTjG-2" edge="1">
          <mxGeometry relative="1" as="geometry">
            <Array as="points">
              <mxPoint x="260" y="200" />
              <mxPoint x="230" y="200" />
              <mxPoint x="230" y="260" />
              <mxPoint x="260" y="260" />
            </Array>
            <mxPoint x="240" y="270" as="targetPoint" />
          </mxGeometry>
        </mxCell>
        <mxCell id="QNasyu7A6PwzEU0mUTjG-41" value="&lt;font style=&quot;font-size: 7px&quot;&gt;p=0.2&lt;/font&gt;" style="edgeLabel;html=1;align=center;verticalAlign=middle;resizable=0;points=[];fontFamily=Lucida Console;" parent="QNasyu7A6PwzEU0mUTjG-39" vertex="1" connectable="0">
          <mxGeometry x="-0.5948" y="-1" relative="1" as="geometry">
            <mxPoint x="1" as="offset" />
          </mxGeometry>
        </mxCell>
        <mxCell id="QNasyu7A6PwzEU0mUTjG-42" value="&lt;font style=&quot;font-size: 7px&quot;&gt;p=0.8&lt;/font&gt;" style="edgeLabel;html=1;align=center;verticalAlign=middle;resizable=0;points=[];fontFamily=Lucida Console;" parent="1" vertex="1" connectable="0">
          <mxGeometry x="274.80000000000007" y="199" as="geometry" />
        </mxCell>
        <mxCell id="QNasyu7A6PwzEU0mUTjG-52" style="edgeStyle=orthogonalEdgeStyle;rounded=0;orthogonalLoop=1;jettySize=auto;html=1;exitX=0.5;exitY=1;exitDx=0;exitDy=0;entryX=0.5;entryY=0;entryDx=0;entryDy=0;strokeColor=#000000;fontFamily=Lucida Console;" parent="1" source="QNasyu7A6PwzEU0mUTjG-46" target="QNasyu7A6PwzEU0mUTjG-51" edge="1">
          <mxGeometry relative="1" as="geometry" />
        </mxCell>
        <mxCell id="QNasyu7A6PwzEU0mUTjG-53" value="&lt;font style=&quot;font-size: 7px&quot;&gt;Yes&lt;/font&gt;" style="edgeLabel;html=1;align=center;verticalAlign=middle;resizable=0;points=[];fontFamily=Lucida Console;" parent="QNasyu7A6PwzEU0mUTjG-52" vertex="1" connectable="0">
          <mxGeometry x="-0.2067" y="1" relative="1" as="geometry">
            <mxPoint x="-1" y="-17.67" as="offset" />
          </mxGeometry>
        </mxCell>
        <mxCell id="QNasyu7A6PwzEU0mUTjG-57" style="edgeStyle=orthogonalEdgeStyle;rounded=0;orthogonalLoop=1;jettySize=auto;html=1;entryX=0;entryY=0.5;entryDx=0;entryDy=0;strokeColor=#000000;fontFamily=Lucida Console;" parent="1" source="QNasyu7A6PwzEU0mUTjG-46" target="QNasyu7A6PwzEU0mUTjG-55" edge="1">
          <mxGeometry relative="1" as="geometry" />
        </mxCell>
        <mxCell id="QNasyu7A6PwzEU0mUTjG-46" value="&lt;font face=&quot;Georgia&quot; style=&quot;font-size: 9px&quot;&gt;Cart empty?&lt;/font&gt;" style="rhombus;whiteSpace=wrap;html=1;dashed=1;labelBackgroundColor=none;strokeColor=#666666;fillColor=#f5f5f5;fontFamily=Lucida Console;align=center;fontColor=#333333;" parent="1" vertex="1">
          <mxGeometry x="539.08" y="280" width="80" height="80" as="geometry" />
        </mxCell>
        <mxCell id="QNasyu7A6PwzEU0mUTjG-51" value="&lt;p&gt;&lt;font face=&quot;Georgia&quot;&gt;End&lt;/font&gt;&lt;/p&gt;" style="rounded=0;whiteSpace=wrap;html=1;fillColor=#f5f5f5;strokeColor=#666666;fontColor=#333333;" parent="1" vertex="1">
          <mxGeometry x="519.08" y="410" width="120" height="40" as="geometry" />
        </mxCell>
        <mxCell id="QNasyu7A6PwzEU0mUTjG-54" value="" style="group" parent="1" vertex="1" connectable="0">
          <mxGeometry x="644.08" y="290" width="120" height="124" as="geometry" />
        </mxCell>
        <mxCell id="QNasyu7A6PwzEU0mUTjG-55" value="&lt;p&gt;&lt;font face=&quot;Georgia&quot;&gt;Cart&lt;/font&gt;&lt;/p&gt;" style="rounded=0;whiteSpace=wrap;html=1;fillColor=#f5f5f5;strokeColor=#666666;fontColor=#333333;" parent="QNasyu7A6PwzEU0mUTjG-54" vertex="1">
          <mxGeometry width="120" height="60" as="geometry" />
        </mxCell>
        <mxCell id="QNasyu7A6PwzEU0mUTjG-56" value="&lt;font face=&quot;Lucida Console&quot; style=&quot;font-size: 6px&quot;&gt;&lt;span&gt;GET /card&lt;br&gt;&lt;/span&gt;GET /address&lt;br&gt;&lt;span&gt;GET /cart&lt;br&gt;GET /catalogue&lt;br&gt;POST /login&lt;br&gt;&lt;/span&gt;&lt;/font&gt;" style="text;html=1;strokeColor=none;fillColor=none;align=left;verticalAlign=top;whiteSpace=wrap;rounded=0;dashed=1;horizontal=1;fontStyle=0;labelBackgroundColor=#ffffff;labelBorderColor=#000000;spacingTop=0;spacing=0;" parent="QNasyu7A6PwzEU0mUTjG-54" vertex="1">
          <mxGeometry x="31.5" y="44" width="65" height="80" as="geometry" />
        </mxCell>
        <mxCell id="QNasyu7A6PwzEU0mUTjG-60" style="edgeStyle=orthogonalEdgeStyle;rounded=0;orthogonalLoop=1;jettySize=auto;html=1;exitX=0.5;exitY=1;exitDx=0;exitDy=0;entryX=1;entryY=0.5;entryDx=0;entryDy=0;strokeColor=#000000;fontFamily=Lucida Console;" parent="1" source="QNasyu7A6PwzEU0mUTjG-58" target="QNasyu7A6PwzEU0mUTjG-51" edge="1">
          <mxGeometry relative="1" as="geometry" />
        </mxCell>
        <mxCell id="QNasyu7A6PwzEU0mUTjG-58" value="&lt;span style=&quot;font-size: 7px&quot;&gt;Check out cart&lt;br&gt;POST /orders&lt;br&gt;DELETE /cart&lt;/span&gt;" style="rounded=0;whiteSpace=wrap;html=1;dashed=1;labelBackgroundColor=none;strokeColor=#6c8ebf;fillColor=#dae8fc;fontFamily=Lucida Console;align=left;" parent="1" vertex="1">
          <mxGeometry x="780" y="295" width="72" height="50" as="geometry" />
        </mxCell>
        <mxCell id="QNasyu7A6PwzEU0mUTjG-59" style="edgeStyle=orthogonalEdgeStyle;rounded=0;orthogonalLoop=1;jettySize=auto;html=1;exitX=1;exitY=0.5;exitDx=0;exitDy=0;entryX=0;entryY=0.5;entryDx=0;entryDy=0;strokeColor=#000000;fontFamily=Lucida Console;" parent="1" source="QNasyu7A6PwzEU0mUTjG-55" target="QNasyu7A6PwzEU0mUTjG-58" edge="1">
          <mxGeometry relative="1" as="geometry" />
        </mxCell>
        <mxCell id="QNasyu7A6PwzEU0mUTjG-61" value="&lt;font style=&quot;font-size: 8px;&quot;&gt;No&lt;/font&gt;" style="edgeLabel;html=1;align=center;verticalAlign=middle;resizable=0;points=[];fontFamily=Georgia;fontSize=8;" parent="1" vertex="1" connectable="0">
          <mxGeometry x="626.08" y="315.9966666666666" as="geometry">
            <mxPoint x="-2" y="-2" as="offset" />
          </mxGeometry>
        </mxCell>
        <mxCell id="QNasyu7A6PwzEU0mUTjG-62" value="&lt;b&gt;&lt;font style=&quot;font-size: 18px&quot;&gt;Buying&lt;/font&gt;&lt;/b&gt;" style="text;html=1;strokeColor=none;fillColor=none;align=center;verticalAlign=middle;whiteSpace=wrap;rounded=0;dashed=1;labelBackgroundColor=none;fontFamily=Georgia;" parent="1" vertex="1">
          <mxGeometry x="70" y="100" width="40" height="20" as="geometry" />
        </mxCell>
        <mxCell id="QNasyu7A6PwzEU0mUTjG-64" value="&lt;b&gt;&lt;font style=&quot;font-size: 18px&quot;&gt;Browsing&lt;/font&gt;&lt;/b&gt;" style="text;html=1;strokeColor=none;fillColor=none;align=left;verticalAlign=middle;whiteSpace=wrap;rounded=0;dashed=1;labelBackgroundColor=none;fontFamily=Georgia;" parent="1" vertex="1">
          <mxGeometry x="57" y="540" width="113" height="20" as="geometry" />
        </mxCell>
        <mxCell id="QNasyu7A6PwzEU0mUTjG-65" value="" style="group" parent="1" vertex="1" connectable="0">
          <mxGeometry x="50" y="600" width="120" height="124" as="geometry" />
        </mxCell>
        <mxCell id="QNasyu7A6PwzEU0mUTjG-66" value="&lt;p&gt;&lt;font face=&quot;Georgia&quot;&gt;Homepage&lt;/font&gt;&lt;/p&gt;" style="rounded=0;whiteSpace=wrap;html=1;fillColor=#f5f5f5;strokeColor=#666666;fontColor=#333333;" parent="QNasyu7A6PwzEU0mUTjG-65" vertex="1">
          <mxGeometry width="120" height="60" as="geometry" />
        </mxCell>
        <mxCell id="QNasyu7A6PwzEU0mUTjG-67" value="&lt;font face=&quot;Lucida Console&quot; style=&quot;font-size: 6px&quot;&gt;&lt;span&gt;GET /catalogue?size=5&lt;/span&gt;&lt;br&gt;&lt;span&gt;GET /cart&lt;/span&gt;&lt;/font&gt;" style="text;html=1;strokeColor=none;fillColor=none;align=left;verticalAlign=top;whiteSpace=wrap;rounded=0;dashed=1;horizontal=1;fontStyle=0;labelBackgroundColor=#ffffff;labelBorderColor=#000000;spacingTop=0;spacing=0;" parent="QNasyu7A6PwzEU0mUTjG-65" vertex="1">
          <mxGeometry x="15" y="44" width="90" height="80" as="geometry" />
        </mxCell>
        <mxCell id="QNasyu7A6PwzEU0mUTjG-68" value="" style="group" parent="1" vertex="1" connectable="0">
          <mxGeometry x="200" y="600" width="120" height="124" as="geometry" />
        </mxCell>
        <mxCell id="QNasyu7A6PwzEU0mUTjG-69" value="&lt;p&gt;&lt;font face=&quot;Georgia&quot;&gt;Catalogue&lt;/font&gt;&lt;/p&gt;" style="rounded=0;whiteSpace=wrap;html=1;fillColor=#f5f5f5;strokeColor=#666666;fontColor=#333333;" parent="QNasyu7A6PwzEU0mUTjG-68" vertex="1">
          <mxGeometry width="120" height="60" as="geometry" />
        </mxCell>
        <mxCell id="QNasyu7A6PwzEU0mUTjG-70" value="&lt;font face=&quot;Lucida Console&quot; style=&quot;font-size: 6px&quot;&gt;&lt;span&gt;GET /catalogue&lt;/span&gt;&lt;br&gt;&lt;span&gt;GET /tags&lt;br&gt;GET /recommender&lt;br&gt;GET /cart&lt;br&gt;&lt;/span&gt;&lt;/font&gt;" style="text;html=1;strokeColor=none;fillColor=none;align=left;verticalAlign=top;whiteSpace=wrap;rounded=0;dashed=1;horizontal=1;fontStyle=0;labelBackgroundColor=#ffffff;labelBorderColor=#000000;spacingTop=0;spacing=0;" parent="QNasyu7A6PwzEU0mUTjG-68" vertex="1">
          <mxGeometry x="30" y="44" width="90" height="80" as="geometry" />
        </mxCell>
        <mxCell id="QNasyu7A6PwzEU0mUTjG-71" style="edgeStyle=orthogonalEdgeStyle;rounded=0;orthogonalLoop=1;jettySize=auto;html=1;entryX=0;entryY=0.5;entryDx=0;entryDy=0;strokeColor=#000000;fontFamily=Georgia;" parent="1" source="QNasyu7A6PwzEU0mUTjG-66" target="QNasyu7A6PwzEU0mUTjG-69" edge="1">
          <mxGeometry relative="1" as="geometry" />
        </mxCell>
        <mxCell id="QNasyu7A6PwzEU0mUTjG-79" style="edgeStyle=orthogonalEdgeStyle;rounded=0;orthogonalLoop=1;jettySize=auto;html=1;entryX=1;entryY=0.5;entryDx=0;entryDy=0;strokeColor=#000000;fontFamily=Georgia;exitX=1;exitY=0.5;exitDx=0;exitDy=0;" parent="1" source="QNasyu7A6PwzEU0mUTjG-72" target="QNasyu7A6PwzEU0mUTjG-75" edge="1">
          <mxGeometry relative="1" as="geometry">
            <Array as="points">
              <mxPoint x="570" y="630" />
              <mxPoint x="570" y="750" />
            </Array>
          </mxGeometry>
        </mxCell>
        <mxCell id="QNasyu7A6PwzEU0mUTjG-80" style="edgeStyle=orthogonalEdgeStyle;rounded=0;orthogonalLoop=1;jettySize=auto;html=1;entryX=0.5;entryY=0;entryDx=0;entryDy=0;strokeColor=#000000;fontFamily=Georgia;exitX=1;exitY=0.5;exitDx=0;exitDy=0;" parent="1" source="QNasyu7A6PwzEU0mUTjG-72" target="QNasyu7A6PwzEU0mUTjG-69" edge="1">
          <mxGeometry relative="1" as="geometry">
            <Array as="points">
              <mxPoint x="540" y="630" />
              <mxPoint x="540" y="580" />
              <mxPoint x="260" y="580" />
            </Array>
          </mxGeometry>
        </mxCell>
        <mxCell id="QNasyu7A6PwzEU0mUTjG-72" value="&lt;p&gt;&lt;font face=&quot;Georgia&quot;&gt;Item&lt;/font&gt;&lt;/p&gt;" style="rounded=0;whiteSpace=wrap;html=1;fillColor=#f5f5f5;strokeColor=#666666;fontColor=#333333;" parent="1" vertex="1">
          <mxGeometry x="400" y="600" width="120" height="60" as="geometry" />
        </mxCell>
        <mxCell id="QNasyu7A6PwzEU0mUTjG-73" value="&lt;font face=&quot;Lucida Console&quot; style=&quot;font-size: 6px&quot;&gt;&lt;span&gt;GET /catalogue/{id}&lt;/span&gt;&lt;br&gt;&lt;span&gt;GET /catalogue&lt;br&gt;GET /recommender&lt;br&gt;GET /cart&lt;br&gt;&lt;/span&gt;&lt;/font&gt;" style="text;html=1;strokeColor=none;fillColor=none;align=left;verticalAlign=top;whiteSpace=wrap;rounded=0;dashed=1;horizontal=1;fontStyle=0;labelBackgroundColor=#ffffff;labelBorderColor=#000000;spacingTop=0;spacing=0;" parent="1" vertex="1">
          <mxGeometry x="422" y="644" width="90" height="80" as="geometry" />
        </mxCell>
        <mxCell id="QNasyu7A6PwzEU0mUTjG-74" style="edgeStyle=orthogonalEdgeStyle;rounded=0;orthogonalLoop=1;jettySize=auto;html=1;exitX=1;exitY=0.5;exitDx=0;exitDy=0;entryX=0;entryY=0.5;entryDx=0;entryDy=0;strokeColor=#000000;fontFamily=Georgia;" parent="1" source="QNasyu7A6PwzEU0mUTjG-69" target="QNasyu7A6PwzEU0mUTjG-72" edge="1">
          <mxGeometry relative="1" as="geometry" />
        </mxCell>
        <mxCell id="QNasyu7A6PwzEU0mUTjG-77" value="&lt;font face=&quot;Lucida Console&quot; style=&quot;font-size: 7px&quot;&gt;p=0.3&lt;/font&gt;" style="edgeLabel;html=1;align=center;verticalAlign=middle;resizable=0;points=[];fontFamily=Georgia;" parent="QNasyu7A6PwzEU0mUTjG-74" vertex="1" connectable="0">
          <mxGeometry x="0.255" relative="1" as="geometry">
            <mxPoint x="4" y="-8" as="offset" />
          </mxGeometry>
        </mxCell>
        <mxCell id="QNasyu7A6PwzEU0mUTjG-75" value="&lt;p&gt;&lt;font face=&quot;Georgia&quot;&gt;End&lt;/font&gt;&lt;/p&gt;" style="rounded=0;whiteSpace=wrap;html=1;fillColor=#f5f5f5;strokeColor=#666666;fontColor=#333333;" parent="1" vertex="1">
          <mxGeometry x="328" y="730" width="120" height="40" as="geometry" />
        </mxCell>
        <mxCell id="QNasyu7A6PwzEU0mUTjG-76" style="edgeStyle=orthogonalEdgeStyle;rounded=0;orthogonalLoop=1;jettySize=auto;html=1;entryX=0.25;entryY=0;entryDx=0;entryDy=0;strokeColor=#000000;fontFamily=Georgia;" parent="1" source="QNasyu7A6PwzEU0mUTjG-69" target="QNasyu7A6PwzEU0mUTjG-75" edge="1">
          <mxGeometry relative="1" as="geometry" />
        </mxCell>
        <mxCell id="QNasyu7A6PwzEU0mUTjG-78" value="&lt;font face=&quot;Lucida Console&quot; style=&quot;font-size: 7px&quot;&gt;p=0.7&lt;/font&gt;" style="edgeLabel;html=1;align=center;verticalAlign=middle;resizable=0;points=[];fontFamily=Georgia;" parent="1" vertex="1" connectable="0">
          <mxGeometry x="344" y="648" as="geometry" />
        </mxCell>
        <mxCell id="QNasyu7A6PwzEU0mUTjG-82" value="&lt;font face=&quot;Lucida Console&quot; style=&quot;font-size: 7px&quot;&gt;p=0.5&lt;/font&gt;" style="edgeLabel;html=1;align=center;verticalAlign=middle;resizable=0;points=[];fontFamily=Georgia;" parent="1" vertex="1" connectable="0">
          <mxGeometry x="560" y="621" as="geometry" />
        </mxCell>
        <mxCell id="QNasyu7A6PwzEU0mUTjG-83" value="&lt;font face=&quot;Lucida Console&quot; style=&quot;font-size: 7px&quot;&gt;p=0.5&lt;/font&gt;" style="edgeLabel;html=1;align=center;verticalAlign=middle;resizable=0;points=[];fontFamily=Georgia;" parent="1" vertex="1" connectable="0">
          <mxGeometry x="526" y="589" as="geometry" />
        </mxCell>
        <mxCell id="QNasyu7A6PwzEU0mUTjG-84" value="&lt;b&gt;&lt;font style=&quot;font-size: 18px&quot;&gt;News&lt;/font&gt;&lt;/b&gt;" style="text;html=1;strokeColor=none;fillColor=none;align=left;verticalAlign=middle;whiteSpace=wrap;rounded=0;dashed=1;labelBackgroundColor=none;fontFamily=Georgia;" parent="1" vertex="1">
          <mxGeometry x="699" y="540" width="113" height="20" as="geometry" />
        </mxCell>
        <mxCell id="QNasyu7A6PwzEU0mUTjG-85" value="&lt;p&gt;&lt;font face=&quot;Georgia&quot;&gt;Homepage&lt;/font&gt;&lt;/p&gt;" style="rounded=0;whiteSpace=wrap;html=1;fillColor=#f5f5f5;strokeColor=#666666;fontColor=#333333;" parent="1" vertex="1">
          <mxGeometry x="692" y="600" width="120" height="60" as="geometry" />
        </mxCell>
        <mxCell id="QNasyu7A6PwzEU0mUTjG-91" style="edgeStyle=orthogonalEdgeStyle;rounded=0;orthogonalLoop=1;jettySize=auto;html=1;entryX=0;entryY=0.5;entryDx=0;entryDy=0;strokeColor=#000000;fontFamily=Georgia;" parent="1" source="QNasyu7A6PwzEU0mUTjG-86" target="QNasyu7A6PwzEU0mUTjG-90" edge="1">
          <mxGeometry relative="1" as="geometry" />
        </mxCell>
        <mxCell id="QNasyu7A6PwzEU0mUTjG-86" value="&lt;p&gt;&lt;font face=&quot;Georgia&quot;&gt;News&lt;/font&gt;&lt;/p&gt;" style="rounded=0;whiteSpace=wrap;html=1;fillColor=#f5f5f5;strokeColor=#666666;fontColor=#333333;" parent="1" vertex="1">
          <mxGeometry x="842" y="600" width="120" height="60" as="geometry" />
        </mxCell>
        <mxCell id="QNasyu7A6PwzEU0mUTjG-87" style="edgeStyle=orthogonalEdgeStyle;rounded=0;orthogonalLoop=1;jettySize=auto;html=1;entryX=0;entryY=0.5;entryDx=0;entryDy=0;strokeColor=#000000;fontFamily=Georgia;" parent="1" source="QNasyu7A6PwzEU0mUTjG-85" target="QNasyu7A6PwzEU0mUTjG-86" edge="1">
          <mxGeometry relative="1" as="geometry" />
        </mxCell>
        <mxCell id="QNasyu7A6PwzEU0mUTjG-88" value="&lt;font face=&quot;Lucida Console&quot; style=&quot;font-size: 6px&quot;&gt;&lt;span&gt;GET /catalogue?size=5&lt;/span&gt;&lt;br&gt;&lt;span&gt;GET /cart&lt;/span&gt;&lt;/font&gt;" style="text;html=1;strokeColor=none;fillColor=none;align=left;verticalAlign=top;whiteSpace=wrap;rounded=0;dashed=1;horizontal=1;fontStyle=0;labelBackgroundColor=#ffffff;labelBorderColor=#000000;spacingTop=0;spacing=0;" parent="1" vertex="1">
          <mxGeometry x="707" y="644" width="90" height="36" as="geometry" />
        </mxCell>
        <mxCell id="QNasyu7A6PwzEU0mUTjG-89" value="&lt;font face=&quot;Lucida Console&quot; style=&quot;font-size: 6px&quot;&gt;&lt;span&gt;GET /news&lt;/span&gt;&lt;br&gt;&lt;span&gt;GET /cart&lt;/span&gt;&lt;/font&gt;" style="text;html=1;strokeColor=none;fillColor=none;align=left;verticalAlign=top;whiteSpace=wrap;rounded=0;dashed=1;horizontal=1;fontStyle=0;labelBackgroundColor=#ffffff;labelBorderColor=#000000;spacingTop=0;spacing=0;" parent="1" vertex="1">
          <mxGeometry x="882.5" y="644" width="43" height="36" as="geometry" />
        </mxCell>
        <mxCell id="QNasyu7A6PwzEU0mUTjG-90" value="&lt;p&gt;&lt;font face=&quot;Georgia&quot;&gt;End&lt;/font&gt;&lt;/p&gt;" style="rounded=0;whiteSpace=wrap;html=1;fillColor=#f5f5f5;strokeColor=#666666;fontColor=#333333;" parent="1" vertex="1">
          <mxGeometry x="990" y="600" width="120" height="60" as="geometry" />
        </mxCell>
        <mxCell id="Ui0SziSdFyUZLDTpdayq-11" style="edgeStyle=orthogonalEdgeStyle;rounded=0;orthogonalLoop=1;jettySize=auto;html=1;entryX=0.5;entryY=1;entryDx=0;entryDy=0;fontFamily=Georgia;fontSize=8;" parent="1" source="Dgl5wJgGayw3G-Wl2ObX-2" target="Ui0SziSdFyUZLDTpdayq-2" edge="1">
          <mxGeometry relative="1" as="geometry" />
        </mxCell>
        <mxCell id="Ui0SziSdFyUZLDTpdayq-19" style="edgeStyle=orthogonalEdgeStyle;rounded=0;orthogonalLoop=1;jettySize=auto;html=1;entryX=0.5;entryY=1;entryDx=0;entryDy=0;fontFamily=Georgia;fontSize=8;" parent="1" source="Dgl5wJgGayw3G-Wl2ObX-2" target="Ui0SziSdFyUZLDTpdayq-5" edge="1">
          <mxGeometry relative="1" as="geometry" />
        </mxCell>
        <mxCell id="Dgl5wJgGayw3G-Wl2ObX-2" value="&lt;font face=&quot;Georgia&quot; style=&quot;font-size: 9px&quot;&gt;Recommend-&lt;br&gt;ation exists?&lt;br&gt;&lt;/font&gt;" style="rhombus;whiteSpace=wrap;html=1;dashed=1;labelBackgroundColor=none;strokeColor=#666666;fillColor=#f5f5f5;fontFamily=Lucida Console;align=center;fontColor=#333333;" parent="1" vertex="1">
          <mxGeometry x="342" y="380" width="80" height="80" as="geometry" />
        </mxCell>
        <mxCell id="Ui0SziSdFyUZLDTpdayq-1" style="edgeStyle=orthogonalEdgeStyle;rounded=0;orthogonalLoop=1;jettySize=auto;html=1;entryX=0;entryY=0.5;entryDx=0;entryDy=0;" parent="1" source="QNasyu7A6PwzEU0mUTjG-2" target="Dgl5wJgGayw3G-Wl2ObX-2" edge="1">
          <mxGeometry relative="1" as="geometry">
            <Array as="points">
              <mxPoint x="330" y="320" />
              <mxPoint x="330" y="420" />
            </Array>
          </mxGeometry>
        </mxCell>
        <mxCell id="Ui0SziSdFyUZLDTpdayq-13" style="edgeStyle=orthogonalEdgeStyle;rounded=0;orthogonalLoop=1;jettySize=auto;html=1;entryX=0;entryY=0.5;entryDx=0;entryDy=0;fontFamily=Georgia;fontSize=8;" parent="1" source="Ui0SziSdFyUZLDTpdayq-2" target="Ui0SziSdFyUZLDTpdayq-5" edge="1">
          <mxGeometry relative="1" as="geometry" />
        </mxCell>
        <mxCell id="Ui0SziSdFyUZLDTpdayq-14" value="Yes" style="edgeLabel;html=1;align=center;verticalAlign=middle;resizable=0;points=[];fontSize=8;fontFamily=Georgia;labelBackgroundColor=none;" parent="Ui0SziSdFyUZLDTpdayq-13" vertex="1" connectable="0">
          <mxGeometry x="0.5934" relative="1" as="geometry">
            <mxPoint x="-2" y="-9" as="offset" />
          </mxGeometry>
        </mxCell>
        <mxCell id="Ui0SziSdFyUZLDTpdayq-17" style="edgeStyle=orthogonalEdgeStyle;rounded=0;orthogonalLoop=1;jettySize=auto;html=1;entryX=1;entryY=0.5;entryDx=0;entryDy=0;fontFamily=Georgia;fontSize=8;" parent="1" source="Ui0SziSdFyUZLDTpdayq-2" target="QNasyu7A6PwzEU0mUTjG-18" edge="1">
          <mxGeometry relative="1" as="geometry">
            <Array as="points">
              <mxPoint x="382" y="153" />
            </Array>
          </mxGeometry>
        </mxCell>
        <mxCell id="Ui0SziSdFyUZLDTpdayq-2" value="&lt;font face=&quot;Georgia&quot; style=&quot;font-size: 9px&quot;&gt;&lt;br&gt;&lt;br&gt;Already visited recommend-&lt;br&gt;ation?&lt;br&gt;&lt;br&gt;&lt;/font&gt;" style="rhombus;whiteSpace=wrap;html=1;dashed=1;labelBackgroundColor=none;strokeColor=#666666;fillColor=#f5f5f5;fontFamily=Lucida Console;align=center;fontColor=#333333;" parent="1" vertex="1">
          <mxGeometry x="342" y="280" width="80" height="80" as="geometry" />
        </mxCell>
        <mxCell id="Ui0SziSdFyUZLDTpdayq-22" style="edgeStyle=orthogonalEdgeStyle;rounded=0;orthogonalLoop=1;jettySize=auto;html=1;entryX=1;entryY=0.5;entryDx=0;entryDy=0;fontFamily=Georgia;fontSize=8;" parent="1" source="Ui0SziSdFyUZLDTpdayq-5" target="QNasyu7A6PwzEU0mUTjG-18" edge="1">
          <mxGeometry relative="1" as="geometry">
            <Array as="points">
              <mxPoint x="479" y="153" />
            </Array>
          </mxGeometry>
        </mxCell>
        <mxCell id="Ui0SziSdFyUZLDTpdayq-24" style="edgeStyle=orthogonalEdgeStyle;rounded=0;orthogonalLoop=1;jettySize=auto;html=1;entryX=0;entryY=0.5;entryDx=0;entryDy=0;fontFamily=Georgia;fontSize=8;" parent="1" source="Ui0SziSdFyUZLDTpdayq-5" target="QNasyu7A6PwzEU0mUTjG-46" edge="1">
          <mxGeometry relative="1" as="geometry" />
        </mxCell>
        <mxCell id="Ui0SziSdFyUZLDTpdayq-25" value="No" style="edgeLabel;html=1;align=center;verticalAlign=middle;resizable=0;points=[];fontSize=8;fontFamily=Georgia;" parent="Ui0SziSdFyUZLDTpdayq-24" vertex="1" connectable="0">
          <mxGeometry x="0.4811" relative="1" as="geometry">
            <mxPoint y="-6" as="offset" />
          </mxGeometry>
        </mxCell>
        <mxCell id="Ui0SziSdFyUZLDTpdayq-5" value="&lt;font face=&quot;Georgia&quot; style=&quot;font-size: 9px&quot;&gt;&lt;br&gt;Random number&lt;br&gt;&amp;lt;= 0.8?&lt;br&gt;&lt;/font&gt;" style="rhombus;whiteSpace=wrap;html=1;dashed=1;labelBackgroundColor=none;strokeColor=#666666;fillColor=#f5f5f5;fontFamily=Lucida Console;align=center;fontColor=#333333;" parent="1" vertex="1">
          <mxGeometry x="439.08" y="280" width="80" height="80" as="geometry" />
        </mxCell>
        <mxCell id="Ui0SziSdFyUZLDTpdayq-18" value="No, visit&lt;br&gt;recommendation" style="edgeLabel;html=1;align=left;verticalAlign=middle;resizable=0;points=[];fontSize=8;fontFamily=Georgia;labelBackgroundColor=none;" parent="1" vertex="1" connectable="0">
          <mxGeometry x="382.0000000000002" y="271" as="geometry" />
        </mxCell>
        <mxCell id="Ui0SziSdFyUZLDTpdayq-20" value="Yes" style="edgeLabel;html=1;align=center;verticalAlign=middle;resizable=0;points=[];fontSize=8;fontFamily=Georgia;labelBackgroundColor=none;" parent="1" vertex="1" connectable="0">
          <mxGeometry x="390.0004761904764" y="375.9999999999999" as="geometry" />
        </mxCell>
        <mxCell id="Ui0SziSdFyUZLDTpdayq-21" value="No" style="edgeLabel;html=1;align=center;verticalAlign=middle;resizable=0;points=[];fontSize=8;fontFamily=Georgia;labelBackgroundColor=none;" parent="1" vertex="1" connectable="0">
          <mxGeometry x="427.0000000000002" y="414" as="geometry" />
        </mxCell>
        <mxCell id="Ui0SziSdFyUZLDTpdayq-23" value="Yes, user wants&lt;br&gt;&amp;nbsp;to browse item" style="edgeLabel;html=1;align=left;verticalAlign=middle;resizable=0;points=[];fontSize=8;fontFamily=Georgia;labelBackgroundColor=none;" parent="1" vertex="1" connectable="0">
          <mxGeometry x="479.0800000000002" y="271" as="geometry" />
        </mxCell>
      </root>
    </mxGraphModel>
  </diagram>
</mxfile>
